<svg id="svg" version="1.1" xmlns="http://www.w3.org/2000/svg" xmlns:xlink="http://www.w3.org/1999/xlink" width="400"
     height="120.59645852749301" viewBox="0, 0, 400,120.59645852749301">
    <g id="svgg">
        <path id="path0"
              d="M82.461 9.952 L 82.417 15.583 48.833 15.625 L 15.250 15.667 15.293 32.921 L 15.336 50.175 18.210 50.129 L 21.083 50.083 21.126 34.292 L 21.168 18.500 54.571 18.500 C 72.942 18.500,88.091 18.454,88.236 18.399 C 88.471 18.309,88.500 17.530,88.500 11.329 L 88.500 4.361 85.502 4.341 L 82.504 4.321 82.461 9.952 M120.333 53.250 L 120.333 102.167 123.333 102.167 L 126.333 102.167 126.333 53.351 C 126.333 8.992,126.309 4.526,126.070 4.434 C 125.925 4.379,124.575 4.333,123.070 4.333 L 120.333 4.333 120.333 53.250 M348.791 4.542 C 348.733 4.714,349.353 6.355,350.571 9.250 C 351.117 10.548,351.568 11.675,351.939 12.667 C 352.162 13.262,352.482 14.050,352.650 14.417 C 353.369 15.986,353.553 16.429,354.013 17.703 C 354.280 18.443,354.563 19.131,354.641 19.232 C 354.719 19.334,354.971 19.904,355.201 20.500 C 356.029 22.648,357.696 26.764,358.003 27.417 C 358.175 27.783,358.499 28.571,358.724 29.167 C 358.948 29.762,359.356 30.738,359.629 31.335 C 359.903 31.932,360.249 32.781,360.398 33.220 C 360.547 33.660,360.894 34.500,361.168 35.086 C 361.442 35.673,361.667 36.228,361.667 36.321 C 361.667 36.482,362.048 37.434,362.355 38.041 C 362.436 38.202,362.800 39.080,363.164 39.993 C 363.528 40.906,363.968 41.975,364.141 42.368 C 364.315 42.762,364.854 44.096,365.339 45.333 C 365.825 46.571,366.610 48.483,367.086 49.583 C 367.561 50.683,368.047 51.883,368.165 52.250 C 368.284 52.617,368.584 53.367,368.832 53.917 C 369.079 54.467,369.752 56.079,370.326 57.500 C 373.106 64.375,373.885 66.263,374.004 66.417 C 374.076 66.508,374.285 67.033,374.470 67.583 C 374.654 68.133,375.048 69.146,375.345 69.833 C 376.306 72.055,376.443 72.389,377.167 74.250 C 377.559 75.258,378.013 76.346,378.175 76.667 C 378.338 76.987,378.616 77.662,378.793 78.167 C 379.079 78.981,380.017 81.276,381.279 84.250 C 381.513 84.800,381.874 85.700,382.083 86.250 C 382.291 86.800,382.845 88.149,383.314 89.248 C 383.783 90.347,384.167 91.322,384.168 91.414 C 384.168 91.507,384.287 91.808,384.432 92.083 C 384.577 92.358,384.884 93.071,385.113 93.667 C 385.343 94.263,385.598 94.900,385.680 95.083 C 386.332 96.535,387.629 99.833,387.549 99.833 C 387.494 99.833,387.558 99.965,387.693 100.125 C 387.947 100.428,388.397 101.446,388.595 102.167 C 388.704 102.559,389.069 103.451,389.585 104.583 C 389.711 104.858,389.977 105.496,390.177 106.000 C 390.377 106.504,390.692 107.254,390.878 107.667 C 391.064 108.079,391.424 108.979,391.678 109.667 C 391.931 110.354,392.585 111.983,393.131 113.285 C 393.677 114.588,394.083 115.695,394.034 115.744 C 393.985 115.793,391.157 115.833,387.750 115.833 C 381.386 115.833,381.241 115.844,381.513 116.310 C 381.601 116.460,381.853 117.033,382.072 117.583 L 382.469 118.583 391.235 118.626 L 400.000 118.670 400.000 118.285 C 400.000 118.073,399.938 117.829,399.863 117.742 C 399.787 117.655,399.471 116.890,399.161 116.042 C 398.851 115.194,398.544 114.500,398.479 114.500 C 398.413 114.500,398.310 114.274,398.250 113.998 C 398.189 113.722,398.035 113.287,397.907 113.031 C 397.779 112.774,397.648 112.419,397.617 112.241 C 397.585 112.062,397.433 111.626,397.279 111.271 C 397.126 110.916,397.000 110.560,397.000 110.480 C 397.000 110.399,396.934 110.333,396.853 110.333 C 396.725 110.333,396.562 109.985,396.424 109.417 C 396.402 109.325,396.367 109.212,396.346 109.167 C 396.325 109.121,396.283 108.971,396.253 108.833 C 396.222 108.696,396.004 108.152,395.768 107.625 C 395.531 107.098,395.393 106.666,395.460 106.664 C 395.528 106.663,395.498 106.606,395.393 106.539 C 395.192 106.410,394.333 104.416,394.333 104.078 C 394.333 103.969,394.097 103.438,393.809 102.898 C 393.521 102.358,393.271 101.804,393.255 101.667 C 393.221 101.373,393.040 100.869,392.819 100.457 C 392.733 100.296,392.432 99.583,392.151 98.874 C 391.870 98.164,391.542 97.358,391.424 97.083 C 391.305 96.808,391.074 96.208,390.911 95.750 C 390.747 95.292,390.561 94.879,390.497 94.833 C 390.433 94.787,390.210 94.263,390.002 93.667 C 389.794 93.071,389.519 92.377,389.391 92.125 C 389.263 91.873,389.212 91.667,389.278 91.667 C 389.343 91.667,389.265 91.570,389.103 91.452 C 388.942 91.334,388.827 91.165,388.848 91.077 C 388.890 90.901,388.808 90.676,388.227 89.372 C 388.011 88.889,387.847 88.439,387.861 88.372 C 387.887 88.252,387.639 87.659,387.358 87.167 C 387.086 86.691,386.689 85.748,386.585 85.333 C 386.462 84.841,385.964 83.619,385.838 83.500 C 385.751 83.417,385.465 82.679,384.775 80.750 C 384.578 80.200,384.377 79.712,384.329 79.667 C 384.207 79.551,383.587 78.129,383.567 77.920 C 383.548 77.722,383.391 77.294,383.065 76.558 C 382.938 76.269,382.833 75.951,382.833 75.850 C 382.833 75.749,382.776 75.667,382.706 75.667 C 382.636 75.667,382.440 75.273,382.272 74.792 C 381.945 73.857,381.692 73.243,381.088 71.917 C 380.879 71.458,380.612 70.783,380.495 70.417 C 380.299 69.806,379.519 67.991,379.152 67.294 C 379.068 67.135,379.000 66.893,379.000 66.757 C 379.000 66.620,378.838 66.151,378.639 65.713 C 378.255 64.865,377.719 63.652,377.273 62.619 C 377.123 62.272,377.000 61.897,377.000 61.786 C 376.999 61.675,376.783 61.171,376.519 60.667 C 376.255 60.163,375.985 59.496,375.918 59.186 C 375.852 58.876,375.618 58.265,375.398 57.828 C 375.179 57.392,375.000 56.971,375.000 56.892 C 375.001 56.814,374.840 56.413,374.643 56.000 C 373.966 54.582,373.828 54.249,373.754 53.858 C 373.713 53.642,373.537 53.224,373.363 52.929 C 373.189 52.635,372.912 51.986,372.748 51.488 C 372.584 50.991,372.244 50.133,371.994 49.583 C 371.304 48.069,370.822 46.855,370.558 45.967 C 370.427 45.527,370.244 45.167,370.150 45.167 C 370.057 45.167,370.027 45.091,370.084 44.999 C 370.141 44.906,370.073 44.716,369.932 44.575 C 369.791 44.434,369.590 44.003,369.484 43.618 C 369.379 43.232,369.077 42.445,368.813 41.868 C 368.549 41.290,368.333 40.777,368.333 40.726 C 368.333 40.675,368.215 40.360,368.069 40.025 C 367.924 39.691,367.699 39.170,367.569 38.869 C 367.440 38.568,367.333 38.205,367.333 38.062 C 367.333 37.919,367.187 37.617,367.009 37.390 C 366.830 37.163,366.487 36.364,366.246 35.614 C 366.005 34.864,365.685 34.063,365.535 33.833 C 365.384 33.604,365.123 33.004,364.955 32.500 C 364.786 31.996,364.503 31.265,364.324 30.877 C 364.146 30.488,364.000 30.019,364.000 29.835 C 364.000 29.651,363.931 29.500,363.847 29.500 C 363.763 29.500,363.566 29.144,363.410 28.708 C 362.786 26.967,362.408 26.075,362.229 25.917 C 362.125 25.825,361.990 25.525,361.929 25.250 C 361.812 24.724,361.083 22.880,360.381 21.333 C 360.152 20.829,359.815 19.929,359.631 19.333 C 359.448 18.737,359.193 18.190,359.065 18.117 C 358.938 18.043,358.833 17.839,358.833 17.663 C 358.833 17.487,358.658 16.947,358.443 16.463 C 357.832 15.088,357.584 14.427,357.627 14.292 C 357.649 14.223,357.592 14.167,357.500 14.167 C 357.408 14.167,357.346 14.110,357.361 14.042 C 357.376 13.973,357.225 13.553,357.027 13.110 C 356.828 12.666,356.618 12.103,356.560 11.860 C 356.502 11.616,356.400 11.342,356.333 11.250 C 356.267 11.158,356.163 10.877,356.103 10.625 C 356.043 10.373,355.923 10.167,355.837 10.167 C 355.750 10.167,355.597 9.848,355.497 9.458 C 355.396 9.069,355.198 8.487,355.057 8.167 C 354.916 7.846,354.668 7.283,354.506 6.917 C 354.344 6.550,354.033 5.820,353.814 5.295 L 353.417 4.339 351.139 4.336 C 349.463 4.334,348.843 4.388,348.791 4.542 M260.000 6.129 C 260.000 6.200,260.281 6.403,260.625 6.582 C 264.127 8.397,268.480 12.627,270.917 16.583 C 271.368 17.317,271.778 17.954,271.827 18.000 C 272.367 18.503,274.588 24.049,275.155 26.309 C 275.884 29.212,276.480 33.753,276.173 34.060 C 276.084 34.150,273.964 34.389,271.464 34.593 C 268.963 34.796,266.890 34.971,266.857 34.981 C 266.824 34.992,266.845 35.189,266.902 35.419 C 266.960 35.650,267.044 36.302,267.088 36.868 C 267.132 37.434,267.261 37.957,267.376 38.030 C 267.672 38.218,268.628 38.198,268.750 38.000 C 268.807 37.907,269.604 37.831,270.552 37.829 C 272.809 37.824,281.982 37.085,282.174 36.893 C 282.264 36.803,282.256 36.140,282.154 35.246 C 282.060 34.423,281.967 33.525,281.946 33.250 C 281.926 32.975,281.862 32.675,281.805 32.583 C 281.748 32.492,281.617 31.817,281.513 31.083 C 281.252 29.246,281.020 28.254,280.579 27.083 C 280.371 26.533,279.914 25.303,279.563 24.349 C 279.212 23.395,278.847 22.533,278.752 22.432 C 278.657 22.332,278.295 21.669,277.947 20.958 C 277.600 20.248,277.244 19.667,277.158 19.667 C 277.071 19.667,277.000 19.590,277.000 19.497 C 277.000 19.403,276.796 19.009,276.548 18.622 C 276.299 18.234,276.110 17.865,276.127 17.802 C 276.145 17.739,276.011 17.640,275.830 17.582 C 275.648 17.525,275.500 17.403,275.500 17.312 C 275.500 16.911,271.240 12.167,270.880 12.167 C 270.820 12.167,270.429 11.884,270.011 11.539 C 269.592 11.193,268.969 10.724,268.626 10.497 C 268.283 10.269,268.002 10.035,268.001 9.976 C 268.001 9.918,267.830 9.827,267.622 9.775 C 267.414 9.722,267.089 9.536,266.900 9.360 C 266.711 9.184,266.075 8.804,265.487 8.516 C 264.898 8.228,264.229 7.883,264.000 7.749 C 263.316 7.352,261.607 6.600,261.259 6.544 C 261.080 6.516,260.812 6.381,260.662 6.246 C 260.371 5.983,260.000 5.917,260.000 6.129 M227.083 13.855 C 223.106 14.355,216.082 16.616,215.339 17.636 C 215.290 17.703,214.762 18.142,214.167 18.611 C 213.083 19.464,211.578 20.975,210.875 21.917 C 209.940 23.167,209.035 24.737,208.918 25.311 C 208.887 25.461,208.700 26.166,208.503 26.879 C 208.156 28.131,207.802 31.794,208.015 31.926 C 208.072 31.961,208.162 32.349,208.215 32.787 C 208.708 36.908,211.334 40.310,215.708 42.497 C 216.994 43.140,218.173 43.667,218.329 43.667 C 218.484 43.667,218.663 43.719,218.727 43.782 C 218.990 44.045,219.556 44.018,219.335 43.752 C 219.220 43.614,219.033 43.500,218.920 43.500 C 218.806 43.500,218.573 43.313,218.400 43.083 C 218.228 42.854,217.993 42.667,217.877 42.667 C 217.761 42.667,217.667 42.601,217.667 42.520 C 217.667 42.439,217.447 42.158,217.180 41.895 C 216.912 41.632,216.668 41.313,216.638 41.186 C 216.608 41.059,216.425 40.778,216.232 40.563 C 215.789 40.066,214.881 38.372,214.767 37.829 C 214.720 37.602,214.559 37.004,214.410 36.500 C 213.803 34.452,213.671 31.139,214.185 30.822 C 214.282 30.762,214.344 30.571,214.322 30.398 C 214.299 30.225,214.371 29.864,214.480 29.597 C 214.590 29.330,214.704 28.917,214.733 28.680 C 214.848 27.759,216.933 24.167,217.353 24.167 C 217.449 24.167,217.499 24.079,217.463 23.972 C 217.316 23.532,221.229 20.304,222.604 19.731 C 222.959 19.583,223.440 19.327,223.673 19.162 C 223.905 18.996,224.730 18.666,225.506 18.428 C 226.282 18.189,227.254 17.874,227.667 17.728 C 230.656 16.666,239.400 16.016,244.167 16.500 C 246.266 16.713,250.395 17.374,250.500 17.514 C 250.546 17.575,250.844 17.681,251.163 17.751 C 252.664 18.077,250.084 16.593,247.378 15.575 C 242.943 13.906,233.234 13.083,227.083 13.855 M339.494 17.947 C 339.381 18.297,339.001 19.311,338.649 20.199 C 338.297 21.088,337.977 21.988,337.937 22.199 C 337.858 22.615,337.588 23.384,337.334 23.917 C 337.038 24.538,334.512 31.519,333.655 34.083 C 333.380 34.908,333.053 35.808,332.928 36.083 C 332.804 36.358,332.388 37.446,332.004 38.500 C 331.620 39.554,331.201 40.642,331.073 40.917 C 330.946 41.192,330.646 42.017,330.409 42.750 C 330.171 43.483,329.875 44.308,329.752 44.583 C 329.370 45.433,328.217 48.477,328.078 49.000 C 328.065 49.046,327.960 49.308,327.843 49.583 C 327.726 49.858,327.422 50.683,327.168 51.417 C 326.581 53.112,324.883 57.644,324.670 58.083 C 324.373 58.698,323.837 60.167,323.911 60.167 C 323.981 60.167,323.647 61.072,323.328 61.750 C 323.241 61.933,322.794 63.096,322.333 64.333 C 321.873 65.571,321.429 66.733,321.347 66.917 C 321.068 67.539,320.667 68.673,320.667 68.837 C 320.667 68.938,321.977 69.000,324.125 68.999 L 327.583 68.998 328.116 67.624 C 328.409 66.868,328.737 65.950,328.846 65.583 C 328.955 65.217,329.108 64.835,329.187 64.735 C 329.265 64.635,329.519 63.973,329.751 63.263 C 329.983 62.553,330.327 61.659,330.515 61.278 C 330.704 60.896,330.894 60.398,330.939 60.172 C 330.983 59.946,331.080 59.683,331.154 59.589 C 331.228 59.494,331.496 58.742,331.749 57.917 C 332.002 57.092,332.261 56.379,332.325 56.333 C 332.434 56.254,332.943 55.059,332.982 54.792 C 332.992 54.723,333.006 54.648,333.013 54.625 C 333.020 54.602,333.049 54.471,333.077 54.333 C 333.137 54.045,334.197 51.275,334.673 50.167 C 334.850 49.754,335.080 49.060,335.184 48.625 C 335.288 48.190,335.428 47.833,335.494 47.833 C 335.561 47.833,335.902 46.964,336.251 45.902 C 336.601 44.840,336.983 43.874,337.102 43.755 C 337.220 43.637,337.278 43.501,337.230 43.453 C 337.153 43.375,337.645 42.007,337.993 41.328 C 338.065 41.187,338.181 40.812,338.250 40.495 C 338.319 40.177,338.428 39.879,338.493 39.833 C 338.602 39.756,339.186 38.135,339.664 36.583 C 339.777 36.217,340.002 35.617,340.165 35.250 C 340.483 34.532,341.285 32.233,341.502 31.417 C 341.575 31.142,341.792 30.620,341.984 30.256 C 342.176 29.893,342.333 29.477,342.333 29.331 C 342.333 29.186,342.404 28.995,342.491 28.908 C 342.577 28.821,342.693 28.494,342.748 28.181 C 342.803 27.868,342.889 27.545,342.939 27.464 C 343.021 27.330,341.641 22.775,341.329 22.150 C 341.255 22.004,340.887 20.883,340.510 19.660 C 339.708 17.054,339.756 17.136,339.494 17.947 M78.167 58.145 C 78.167 62.994,78.136 63.643,77.903 63.732 C 77.758 63.788,63.621 63.833,46.486 63.833 L 15.333 63.833 15.333 83.000 L 15.333 102.167 18.250 102.167 L 21.167 102.167 21.167 84.333 L 21.167 66.500 52.669 66.500 L 84.170 66.500 84.127 59.625 L 84.083 52.750 81.125 52.704 L 78.167 52.659 78.167 58.145 M264.333 57.834 C 264.563 58.013,265.200 58.438,265.750 58.778 C 268.830 60.680,272.095 63.608,273.989 66.165 C 275.155 67.738,277.000 70.776,277.000 71.122 C 277.000 71.245,277.106 71.511,277.236 71.714 C 277.365 71.917,277.702 72.745,277.985 73.553 C 280.539 80.859,280.228 88.564,277.081 95.931 C 276.422 97.475,276.043 98.216,275.250 99.517 C 275.158 99.667,274.942 100.043,274.769 100.353 C 271.988 105.331,264.277 111.718,258.500 113.827 C 258.179 113.944,257.579 114.190,257.167 114.374 C 254.270 115.668,247.880 117.196,244.417 117.424 C 243.500 117.485,242.645 117.620,242.516 117.725 C 242.188 117.993,231.937 117.981,231.244 117.711 C 230.972 117.606,229.550 117.442,228.083 117.347 C 224.262 117.101,214.599 115.077,214.361 114.473 C 214.330 114.395,214.229 114.378,214.137 114.435 C 213.943 114.555,215.154 115.318,215.708 115.425 C 215.914 115.464,216.108 115.573,216.139 115.666 C 216.170 115.759,216.264 115.793,216.348 115.741 C 216.431 115.689,216.500 115.726,216.500 115.823 C 216.500 115.921,216.635 116.000,216.800 116.000 C 216.965 116.000,217.171 116.066,217.258 116.147 C 217.383 116.262,218.336 116.631,218.833 116.757 C 218.879 116.768,219.142 116.871,219.417 116.985 C 220.998 117.642,224.506 118.667,225.171 118.667 C 225.429 118.667,225.664 118.731,225.694 118.810 C 226.160 120.013,244.868 120.962,251.417 120.115 C 255.034 119.647,257.833 119.078,257.833 118.811 C 257.833 118.732,258.049 118.667,258.312 118.667 C 258.759 118.667,261.958 117.695,262.619 117.359 C 263.229 117.049,264.184 116.667,264.349 116.667 C 264.539 116.667,266.368 115.810,266.500 115.659 C 266.546 115.607,266.846 115.459,267.167 115.330 C 267.487 115.201,268.350 114.727,269.083 114.276 C 269.817 113.825,270.679 113.307,271.000 113.126 C 271.321 112.945,271.643 112.692,271.717 112.565 C 271.790 112.438,272.090 112.210,272.383 112.058 C 273.487 111.490,277.945 107.245,278.436 106.296 C 278.568 106.041,278.742 105.833,278.824 105.833 C 278.906 105.833,279.144 105.552,279.354 105.208 C 279.564 104.865,279.795 104.558,279.868 104.528 C 279.941 104.497,280.000 104.366,280.000 104.236 C 280.000 104.106,280.157 103.843,280.348 103.652 C 280.540 103.460,281.005 102.729,281.382 102.027 C 281.760 101.325,282.165 100.651,282.284 100.530 C 282.403 100.409,282.500 100.212,282.500 100.092 C 282.500 99.759,283.341 97.933,283.558 97.794 C 283.664 97.727,283.695 97.671,283.627 97.669 C 283.560 97.668,283.663 97.273,283.857 96.792 C 284.264 95.778,284.486 94.982,284.584 94.184 C 284.623 93.872,284.803 93.122,284.985 92.517 C 285.772 89.899,285.918 82.780,285.222 81.000 C 285.168 80.862,285.100 80.600,285.071 80.417 C 284.922 79.471,284.572 78.094,284.138 76.750 C 283.872 75.925,283.633 75.175,283.606 75.083 C 283.449 74.543,282.122 71.908,281.953 71.801 C 281.841 71.730,281.825 71.669,281.917 71.667 C 282.022 71.663,282.020 71.617,281.910 71.539 C 281.770 71.439,280.279 69.300,279.583 68.200 C 279.492 68.055,278.817 67.315,278.083 66.555 C 277.350 65.795,276.660 65.078,276.550 64.962 C 276.327 64.726,276.210 64.633,275.250 63.925 C 274.883 63.655,274.462 63.299,274.314 63.134 C 274.166 62.968,273.995 62.833,273.935 62.833 C 273.777 62.833,272.460 61.966,272.167 61.668 C 272.029 61.528,271.692 61.304,271.417 61.169 C 271.142 61.034,270.323 60.558,269.598 60.110 C 268.873 59.663,268.048 59.221,267.765 59.127 C 267.482 59.034,267.157 58.841,267.043 58.699 C 266.930 58.557,266.788 58.490,266.729 58.549 C 266.670 58.608,266.406 58.504,266.144 58.317 C 265.881 58.130,265.667 58.023,265.667 58.078 C 265.667 58.133,265.506 58.093,265.310 57.988 C 265.114 57.883,264.720 57.732,264.435 57.652 L 263.917 57.507 264.333 57.834 M215.255 59.226 C 215.435 59.351,215.865 59.544,216.210 59.656 C 216.554 59.768,216.950 59.974,217.088 60.112 C 217.227 60.250,217.432 60.377,217.545 60.394 C 217.779 60.429,218.658 60.758,219.469 61.116 C 219.773 61.250,220.215 61.394,220.451 61.437 C 220.687 61.480,221.132 61.620,221.440 61.749 C 221.748 61.878,222.001 61.931,222.003 61.866 C 222.004 61.802,222.067 61.848,222.143 61.967 C 222.323 62.251,230.994 64.825,231.792 64.831 C 231.998 64.832,232.167 64.896,232.167 64.972 C 232.167 65.049,232.260 65.118,232.375 65.127 C 232.490 65.136,233.178 65.299,233.904 65.490 C 234.631 65.681,235.418 65.871,235.654 65.911 C 237.072 66.155,238.637 66.579,238.563 66.700 C 238.515 66.778,238.537 66.825,238.613 66.804 C 238.688 66.783,239.012 66.816,239.333 66.878 C 239.654 66.940,240.143 67.028,240.419 67.074 C 240.695 67.120,241.669 67.347,242.582 67.579 C 243.495 67.810,244.398 68.000,244.588 68.000 C 244.778 68.000,245.005 68.060,245.092 68.133 C 245.359 68.357,246.322 68.634,248.656 69.159 C 249.887 69.436,250.943 69.740,251.001 69.835 C 251.060 69.930,251.515 70.075,252.012 70.158 C 252.510 70.240,253.533 70.508,254.287 70.752 C 255.041 70.997,255.754 71.165,255.871 71.125 C 256.421 70.937,249.215 67.985,247.377 67.645 C 246.888 67.555,246.172 67.368,245.785 67.229 C 245.399 67.091,243.996 66.690,242.667 66.339 C 241.338 65.987,239.275 65.439,238.083 65.119 C 236.892 64.799,235.279 64.414,234.500 64.262 C 233.721 64.110,232.633 63.846,232.083 63.676 C 231.533 63.505,229.846 63.060,228.333 62.687 C 223.898 61.594,221.122 60.839,220.533 60.565 C 220.231 60.425,219.707 60.265,219.370 60.210 C 219.032 60.155,218.048 59.861,217.182 59.555 C 215.471 58.952,214.653 58.812,215.255 59.226 M204.918 80.650 C 203.665 80.775,203.674 80.727,204.394 83.518 C 206.000 89.743,208.912 94.205,213.418 97.345 C 214.588 98.161,217.696 100.000,217.904 100.000 C 217.946 100.000,218.697 100.337,219.574 100.750 C 220.451 101.162,221.206 101.500,221.251 101.500 C 221.563 101.500,221.169 101.141,220.167 100.512 C 219.525 100.109,219.000 99.736,219.000 99.682 C 219.000 99.628,218.681 99.380,218.291 99.132 C 217.491 98.622,214.500 95.558,214.500 95.249 C 214.500 95.182,214.273 94.869,213.996 94.554 C 213.719 94.238,213.536 93.910,213.590 93.823 C 213.643 93.737,213.608 93.667,213.513 93.667 C 213.418 93.667,213.292 93.477,213.234 93.246 C 213.176 93.015,213.002 92.734,212.848 92.621 C 212.693 92.509,212.465 92.154,212.340 91.833 C 212.216 91.513,211.969 90.920,211.791 90.517 C 211.614 90.113,211.435 89.594,211.393 89.364 C 211.351 89.133,211.139 88.563,210.921 88.097 C 210.703 87.631,210.491 87.025,210.450 86.750 C 210.299 85.741,209.627 82.740,209.480 82.417 C 209.397 82.233,209.311 81.746,209.289 81.333 L 209.250 80.583 207.583 80.567 C 206.667 80.558,205.467 80.596,204.918 80.650 M315.838 82.458 C 315.644 82.985,315.387 83.642,315.266 83.917 C 315.145 84.192,314.837 85.054,314.582 85.833 C 314.327 86.612,314.026 87.438,313.913 87.667 C 313.799 87.896,313.436 88.889,313.106 89.873 C 312.775 90.858,312.166 92.529,311.752 93.587 C 311.338 94.645,311.000 95.602,310.999 95.714 C 310.998 95.825,310.887 96.129,310.752 96.388 C 310.617 96.647,310.322 97.435,310.097 98.138 C 309.871 98.841,309.265 100.542,308.748 101.917 C 308.232 103.292,307.747 104.663,307.671 104.963 C 307.595 105.264,307.459 105.601,307.368 105.713 C 307.277 105.825,306.974 106.629,306.695 107.500 C 306.158 109.176,304.337 114.155,303.876 115.208 L 303.603 115.833 299.093 115.836 C 293.833 115.838,293.903 115.828,293.751 116.635 C 293.689 116.967,293.527 117.454,293.390 117.718 C 292.881 118.702,292.579 118.667,301.391 118.667 C 310.057 118.667,309.692 118.704,309.921 117.791 C 309.984 117.539,310.103 117.333,310.185 117.333 C 310.266 117.333,310.324 117.277,310.314 117.208 C 310.303 117.140,310.308 117.046,310.326 117.000 C 310.344 116.954,310.387 116.804,310.422 116.667 C 310.457 116.529,310.669 115.892,310.893 115.250 C 311.117 114.608,311.398 113.746,311.518 113.333 C 311.638 112.921,311.777 112.546,311.827 112.500 C 312.013 112.328,312.333 111.561,312.486 110.917 C 312.680 110.097,313.093 108.960,313.437 108.293 C 313.580 108.018,313.731 107.598,313.775 107.360 C 313.818 107.122,313.911 106.850,313.982 106.755 C 314.053 106.661,314.284 105.983,314.496 105.250 C 314.707 104.517,314.930 103.879,314.990 103.833 C 315.166 103.699,315.833 101.983,315.833 101.665 C 315.833 101.369,316.210 100.319,316.503 99.796 C 316.763 99.332,318.000 95.611,318.000 95.292 C 318.000 95.131,318.065 95.000,318.144 95.000 C 318.290 95.000,318.720 93.878,319.244 92.125 C 319.402 91.598,319.603 91.167,319.692 91.167 C 319.781 91.167,319.801 91.083,319.738 90.981 C 319.675 90.879,319.711 90.742,319.818 90.676 C 319.925 90.610,320.047 90.365,320.089 90.132 C 320.131 89.898,320.391 89.079,320.665 88.312 C 320.940 87.544,321.165 86.785,321.166 86.625 C 321.166 86.465,321.223 86.333,321.292 86.332 C 321.360 86.332,321.600 85.844,321.824 85.249 L 322.232 84.167 341.491 84.157 C 352.083 84.152,361.556 84.156,362.542 84.166 C 363.657 84.178,364.333 84.121,364.333 84.015 C 364.333 83.758,363.645 81.945,363.457 81.708 C 363.327 81.543,358.383 81.500,339.742 81.500 L 316.191 81.500 315.838 82.458 M85.167 110.333 L 85.167 115.833 45.542 115.875 L 5.917 115.917 5.917 117.250 L 5.917 118.583 48.458 118.625 L 91.000 118.667 91.000 111.750 L 91.000 104.833 88.083 104.833 L 85.167 104.833 85.167 110.333 M176.333 110.333 L 176.333 115.833 143.583 115.833 L 110.833 115.833 110.833 117.250 L 110.833 118.667 146.320 118.667 C 165.837 118.667,181.925 118.621,182.070 118.566 C 182.304 118.476,182.333 117.710,182.333 111.649 L 182.333 104.833 179.333 104.833 L 176.333 104.833 176.333 110.333 "
              stroke="none" fill="#6688ba" fill-rule="evenodd"></path>
        <path id="path1"
              d="M226.917 0.177 C 223.310 0.589,219.167 1.295,219.167 1.498 C 219.167 1.566,218.698 1.714,218.125 1.827 C 217.552 1.940,216.371 2.266,215.500 2.551 C 214.629 2.837,213.879 3.074,213.833 3.079 C 213.787 3.084,213.665 3.143,213.560 3.209 C 213.456 3.276,212.672 3.597,211.819 3.922 C 210.965 4.248,210.184 4.583,210.082 4.668 C 209.980 4.752,209.364 5.105,208.711 5.452 C 206.852 6.441,205.151 7.529,204.943 7.862 C 204.839 8.030,204.692 8.167,204.617 8.167 C 203.634 8.167,198.477 13.786,197.376 16.057 C 197.161 16.501,196.849 17.010,196.683 17.187 C 196.517 17.365,196.179 18.028,195.931 18.660 C 195.683 19.292,195.372 19.899,195.240 20.008 C 195.108 20.118,194.999 20.330,194.997 20.479 C 194.995 20.628,194.778 21.360,194.515 22.105 C 194.252 22.851,193.984 23.920,193.919 24.480 C 193.854 25.041,193.741 25.500,193.668 25.500 C 192.869 25.500,192.863 37.002,193.662 37.497 C 193.738 37.545,193.855 37.958,193.921 38.417 C 194.188 40.267,196.139 44.933,196.869 45.468 C 197.033 45.588,197.167 45.784,197.167 45.905 C 197.167 46.185,198.972 48.667,199.175 48.667 C 199.259 48.667,199.369 48.835,199.421 49.042 C 199.473 49.248,199.775 49.586,200.091 49.793 C 200.408 50.000,200.667 50.234,200.667 50.313 C 200.667 50.469,203.228 52.680,204.167 53.333 C 204.487 53.556,204.849 53.835,204.970 53.953 C 205.091 54.070,205.246 54.167,205.314 54.167 C 205.382 54.167,205.583 54.299,205.760 54.461 C 205.938 54.622,206.402 54.896,206.792 55.069 C 207.181 55.242,207.500 55.445,207.500 55.519 C 207.500 55.593,208.081 55.932,208.792 56.271 C 209.502 56.611,210.121 56.933,210.167 56.986 C 210.338 57.186,213.364 58.333,213.717 58.331 C 214.105 58.329,217.711 59.448,219.445 60.108 C 220.011 60.324,220.587 60.500,220.725 60.500 C 220.863 60.500,222.388 60.903,224.113 61.395 C 225.838 61.887,227.813 62.417,228.500 62.572 C 229.188 62.728,230.237 63.002,230.833 63.182 C 231.429 63.362,232.359 63.580,232.899 63.666 C 233.897 63.826,242.003 65.869,242.917 66.191 C 243.192 66.287,244.167 66.557,245.083 66.789 C 247.377 67.370,252.042 68.919,253.069 69.440 C 253.535 69.676,254.213 69.976,254.576 70.106 C 255.433 70.414,256.833 71.314,256.834 71.559 C 256.835 71.739,257.331 72.081,258.375 72.621 C 258.627 72.751,258.833 72.965,258.833 73.096 C 258.833 73.226,258.896 73.333,258.973 73.333 C 259.220 73.333,260.667 74.538,260.667 74.744 C 260.667 74.854,260.948 75.200,261.292 75.514 C 261.927 76.093,262.175 76.421,262.539 77.167 C 262.652 77.396,262.791 77.621,262.850 77.667 C 263.115 77.874,263.693 79.344,264.024 80.651 C 264.223 81.439,264.467 82.136,264.566 82.201 C 264.807 82.358,264.817 87.133,264.577 87.298 C 264.482 87.363,264.312 87.829,264.197 88.333 C 264.083 88.837,263.930 89.517,263.857 89.843 C 263.783 90.169,263.606 90.656,263.463 90.926 C 263.320 91.196,262.954 91.904,262.649 92.500 C 262.345 93.096,262.054 93.621,262.003 93.667 C 261.952 93.712,261.819 93.956,261.709 94.208 C 261.598 94.460,261.393 94.667,261.254 94.667 C 261.114 94.667,261.000 94.778,261.000 94.915 C 261.000 95.157,258.587 97.667,258.354 97.667 C 258.289 97.667,257.957 97.930,257.615 98.253 C 257.273 98.575,256.693 98.959,256.326 99.106 C 255.958 99.253,255.566 99.498,255.454 99.650 C 255.252 99.924,254.733 100.167,252.705 100.935 C 252.130 101.152,251.492 101.439,251.288 101.571 C 251.084 101.703,249.942 102.047,248.752 102.335 C 247.561 102.623,246.549 102.919,246.502 102.992 C 246.239 103.402,238.080 104.071,235.167 103.921 C 232.434 103.781,227.302 103.214,227.180 103.040 C 227.127 102.964,226.296 102.727,225.333 102.514 C 224.371 102.300,223.341 102.054,223.045 101.967 C 222.749 101.881,222.418 101.864,222.311 101.931 C 222.179 102.012,222.160 101.979,222.252 101.831 C 222.351 101.670,222.312 101.639,222.111 101.716 C 221.958 101.775,221.833 101.769,221.833 101.703 C 221.833 101.637,221.665 101.573,221.458 101.559 C 220.502 101.499,215.736 99.286,214.701 98.423 C 214.453 98.216,213.987 97.912,213.667 97.748 C 212.351 97.072,208.905 93.614,207.679 91.738 C 206.604 90.093,205.507 87.873,205.075 86.472 C 204.925 85.983,204.654 85.220,204.473 84.776 C 204.045 83.726,203.828 82.439,203.764 80.583 C 203.655 77.419,204.193 77.663,198.417 78.158 C 196.308 78.338,193.271 78.570,191.667 78.673 C 190.063 78.776,188.698 78.910,188.634 78.972 C 188.468 79.132,188.829 83.739,189.013 83.806 C 189.098 83.836,189.166 84.024,189.166 84.222 C 189.164 84.585,189.528 86.791,189.871 88.500 C 189.972 89.004,190.192 89.712,190.361 90.073 C 190.529 90.434,190.667 90.856,190.667 91.011 C 190.667 91.268,190.948 92.072,191.334 92.917 C 191.418 93.100,191.567 93.569,191.666 93.958 C 191.765 94.348,191.908 94.667,191.984 94.667 C 192.059 94.667,192.323 95.135,192.570 95.708 C 193.177 97.117,193.515 97.724,193.779 97.883 C 193.900 97.957,194.000 98.137,194.000 98.284 C 194.000 98.431,194.188 98.798,194.417 99.098 C 194.646 99.399,194.833 99.720,194.833 99.812 C 194.833 99.904,195.057 100.224,195.330 100.524 C 195.604 100.823,195.937 101.298,196.070 101.578 C 196.203 101.858,196.540 102.257,196.820 102.464 C 197.100 102.671,197.371 103.007,197.424 103.212 C 197.476 103.416,197.814 103.794,198.176 104.052 C 198.538 104.311,198.833 104.622,198.833 104.745 C 198.833 104.944,199.292 105.383,202.156 107.925 C 202.574 108.296,203.142 108.739,203.417 108.910 C 203.692 109.080,203.974 109.315,204.043 109.431 C 204.113 109.548,204.582 109.852,205.085 110.106 C 205.588 110.361,206.000 110.629,206.000 110.701 C 206.000 110.774,206.112 110.833,206.250 110.833 C 206.387 110.833,206.500 110.898,206.500 110.977 C 206.500 111.056,207.156 111.453,207.959 111.860 C 208.761 112.266,209.717 112.753,210.084 112.942 C 210.900 113.362,212.314 113.874,212.708 113.892 C 212.869 113.899,213.000 113.993,213.000 114.101 C 213.000 114.209,213.112 114.341,213.250 114.394 C 213.387 114.446,213.500 114.411,213.500 114.315 C 213.500 114.092,214.154 114.223,216.083 114.831 C 218.160 115.485,221.339 116.263,222.833 116.482 C 223.521 116.583,224.571 116.745,225.167 116.844 C 227.987 117.309,229.783 117.476,232.092 117.487 C 233.611 117.495,234.669 117.569,234.776 117.676 C 235.148 118.048,246.025 117.423,246.583 116.998 C 246.675 116.928,247.237 116.815,247.833 116.748 C 253.122 116.152,262.148 112.473,266.236 109.248 C 266.702 108.880,267.271 108.456,267.500 108.305 C 267.975 107.992,271.307 104.694,272.126 103.725 C 275.471 99.772,278.365 93.461,279.146 88.417 C 279.403 86.758,279.258 79.140,278.940 77.587 C 278.306 74.487,276.387 69.707,275.149 68.145 C 274.882 67.807,274.562 67.337,274.439 67.100 C 273.886 66.033,270.023 62.013,268.497 60.917 C 268.114 60.642,267.564 60.249,267.275 60.045 C 266.986 59.840,266.675 59.614,266.583 59.542 C 266.186 59.230,264.518 58.167,264.427 58.167 C 264.179 58.167,263.015 57.278,263.094 57.149 C 263.143 57.070,262.598 56.733,261.883 56.399 C 261.168 56.066,260.246 55.623,259.833 55.415 C 259.421 55.206,258.371 54.794,257.500 54.499 C 256.629 54.203,255.892 53.895,255.861 53.814 C 255.831 53.733,255.652 53.667,255.465 53.667 C 255.278 53.667,254.440 53.447,253.604 53.179 C 252.768 52.912,251.802 52.646,251.458 52.589 C 251.115 52.532,250.833 52.422,250.833 52.345 C 250.833 52.268,250.627 52.166,250.375 52.120 C 250.123 52.073,249.504 51.921,249.000 51.781 C 248.496 51.642,247.352 51.355,246.458 51.144 C 245.565 50.933,244.833 50.710,244.833 50.649 C 244.833 50.588,244.477 50.486,244.042 50.424 C 243.606 50.361,242.545 50.129,241.684 49.907 C 240.822 49.686,239.735 49.456,239.267 49.397 C 238.799 49.338,238.342 49.230,238.250 49.159 C 238.030 48.987,235.391 48.333,234.917 48.333 C 234.391 48.333,231.852 47.697,231.225 47.408 C 230.936 47.275,230.523 47.166,230.308 47.166 C 230.093 47.165,229.092 46.941,228.083 46.667 C 227.075 46.393,226.088 46.168,225.889 46.168 C 225.690 46.167,225.503 46.095,225.472 46.007 C 225.442 45.919,224.382 45.551,223.117 45.187 C 221.852 44.824,220.702 44.432,220.562 44.316 C 220.383 44.167,220.275 44.158,220.196 44.287 C 219.888 44.783,214.460 42.323,212.667 40.875 C 206.514 35.905,206.132 26.687,211.820 20.463 C 212.709 19.490,214.662 17.827,215.345 17.461 C 215.568 17.342,215.938 17.120,216.167 16.967 C 222.355 12.852,239.825 12.094,247.917 15.590 C 248.192 15.709,248.754 15.935,249.167 16.093 C 250.299 16.527,252.134 17.690,252.223 18.029 C 252.266 18.194,252.490 18.401,252.720 18.489 C 252.951 18.576,253.202 18.753,253.278 18.881 C 253.354 19.010,253.812 19.463,254.294 19.888 C 255.650 21.083,257.464 23.225,257.375 23.526 C 257.352 23.603,257.408 23.667,257.500 23.667 C 257.592 23.667,257.667 23.760,257.667 23.875 C 257.667 23.990,257.888 24.341,258.157 24.657 C 258.427 24.972,258.614 25.283,258.574 25.349 C 258.534 25.414,258.725 25.895,259.000 26.417 C 259.275 26.940,259.500 27.485,259.500 27.629 C 259.500 27.773,259.600 28.009,259.721 28.154 C 260.075 28.575,261.167 33.240,261.167 34.333 C 261.167 34.517,261.242 34.667,261.333 34.667 C 261.425 34.667,261.500 34.854,261.500 35.083 C 261.500 35.313,261.583 35.500,261.684 35.500 C 263.111 35.500,266.777 35.080,266.961 34.896 C 267.087 34.770,267.391 34.667,267.637 34.668 C 268.301 34.670,274.831 34.172,275.458 34.071 L 276.000 33.985 276.000 32.867 C 276.000 31.794,275.429 27.790,275.231 27.469 C 275.178 27.383,275.097 27.074,275.052 26.781 C 274.524 23.382,271.620 17.427,268.717 13.790 C 267.776 12.611,264.333 9.167,264.095 9.167 C 263.987 9.167,262.835 8.308,262.381 7.889 C 262.265 7.782,261.571 7.332,260.839 6.889 C 260.106 6.446,259.536 6.000,259.572 5.899 C 259.640 5.709,258.667 5.167,258.257 5.167 C 258.130 5.167,257.814 4.990,257.554 4.774 C 257.295 4.557,256.783 4.280,256.417 4.156 C 256.050 4.033,255.679 3.872,255.592 3.799 C 255.505 3.726,255.332 3.667,255.209 3.667 C 255.085 3.667,254.706 3.533,254.367 3.370 C 253.504 2.956,250.621 2.061,249.375 1.822 C 248.802 1.711,248.333 1.568,248.333 1.503 C 248.333 1.261,244.149 0.603,239.833 0.166 C 237.966 -0.023,228.599 -0.015,226.917 0.177 M0.000 58.917 L 0.000 116.000 2.907 116.000 C 4.665 116.000,5.854 115.934,5.917 115.833 C 5.985 115.723,19.363 115.667,45.510 115.667 L 85.000 115.667 85.000 110.250 C 85.000 106.750,85.059 104.833,85.167 104.833 C 85.264 104.833,85.333 104.274,85.333 103.487 L 85.333 102.141 50.167 102.196 L 15.000 102.250 15.000 82.958 L 15.000 63.667 46.500 63.667 L 78.000 63.667 78.001 58.958 C 78.001 56.369,78.050 53.294,78.110 52.125 L 78.218 50.000 49.692 50.000 C 30.367 50.000,21.167 50.055,21.167 50.170 C 21.167 50.282,20.116 50.325,18.125 50.295 L 15.083 50.250 15.083 32.917 L 15.083 15.583 48.630 15.541 C 75.257 15.508,82.191 15.456,82.244 15.291 C 82.280 15.177,82.341 12.102,82.379 8.458 L 82.449 1.833 41.224 1.833 L 0.000 1.833 0.000 58.917 M104.833 58.917 L 104.833 116.000 107.833 116.000 C 109.722 116.000,110.833 115.938,110.833 115.833 C 110.833 115.723,121.833 115.667,143.500 115.667 L 176.167 115.667 176.167 110.250 C 176.167 106.750,176.226 104.833,176.333 104.833 C 176.431 104.833,176.500 104.273,176.500 103.485 L 176.500 102.137 148.292 102.185 L 120.083 102.232 120.041 53.500 C 120.014 21.123,120.055 4.711,120.166 4.600 C 120.258 4.508,120.333 3.848,120.333 3.133 L 120.333 1.833 112.583 1.833 L 104.833 1.833 104.833 58.917 M330.796 2.208 C 330.662 2.415,330.498 2.808,330.430 3.083 C 330.363 3.358,330.211 3.808,330.094 4.083 C 329.598 5.242,329.500 5.532,329.500 5.829 C 329.500 6.002,329.401 6.242,329.280 6.363 C 329.159 6.484,329.045 6.639,329.028 6.707 C 329.010 6.775,328.891 7.075,328.762 7.374 C 328.634 7.672,328.367 8.442,328.169 9.083 C 327.971 9.725,327.716 10.362,327.603 10.500 C 327.413 10.732,326.375 13.682,326.243 14.368 C 326.211 14.535,326.079 14.778,325.951 14.906 C 325.822 15.035,325.552 15.690,325.350 16.362 C 325.148 17.034,324.801 17.958,324.578 18.417 C 324.355 18.875,324.062 19.587,323.927 20.000 C 323.475 21.380,322.892 22.908,322.433 23.917 C 322.183 24.467,321.934 25.142,321.881 25.417 C 321.828 25.692,321.580 26.329,321.330 26.833 C 321.079 27.337,320.820 28.002,320.753 28.310 C 320.687 28.618,320.452 29.276,320.233 29.773 C 320.013 30.270,319.833 30.818,319.833 30.991 C 319.833 31.164,319.774 31.331,319.701 31.361 C 319.530 31.433,318.961 32.805,318.571 34.083 C 318.403 34.633,318.169 35.182,318.050 35.303 C 317.931 35.424,317.792 35.724,317.742 35.970 C 317.637 36.479,317.054 38.106,316.822 38.539 C 316.736 38.699,316.667 38.910,316.667 39.008 C 316.667 39.107,316.486 39.582,316.266 40.064 C 316.046 40.546,315.705 41.478,315.509 42.137 C 315.313 42.795,315.093 43.333,315.020 43.333 C 314.947 43.333,314.643 44.064,314.346 44.956 C 314.048 45.849,313.687 46.842,313.542 47.164 C 313.398 47.486,313.272 47.788,313.263 47.833 C 313.236 47.965,312.817 49.032,312.572 49.591 C 312.450 49.870,312.306 50.350,312.252 50.658 C 312.197 50.966,312.016 51.413,311.849 51.651 C 311.682 51.889,311.451 52.383,311.336 52.750 C 311.020 53.758,310.272 55.739,310.172 55.833 C 310.057 55.941,309.374 57.849,309.072 58.906 C 308.942 59.358,308.772 59.771,308.693 59.823 C 308.538 59.924,307.792 61.833,307.907 61.833 C 308.002 61.833,307.159 63.896,307.021 64.000 C 306.960 64.046,306.824 64.383,306.719 64.750 C 306.385 65.905,305.703 67.717,305.260 68.624 C 305.025 69.105,304.833 69.573,304.833 69.665 C 304.833 69.989,304.121 71.920,303.911 72.167 C 303.794 72.304,303.608 72.754,303.499 73.167 C 303.390 73.579,303.246 73.992,303.180 74.083 C 303.051 74.260,302.604 75.635,302.583 75.917 C 302.576 76.008,302.447 76.271,302.296 76.500 C 302.145 76.729,301.858 77.442,301.657 78.083 C 301.457 78.725,301.190 79.486,301.063 79.775 C 300.937 80.064,300.833 80.358,300.833 80.429 C 300.833 80.499,300.734 80.675,300.612 80.820 C 300.490 80.965,300.298 81.421,300.185 81.833 C 300.071 82.246,299.833 82.901,299.656 83.290 C 299.479 83.678,299.333 84.178,299.333 84.401 C 299.333 84.623,299.250 84.833,299.149 84.867 C 298.955 84.932,298.626 85.729,298.259 87.024 C 298.138 87.450,297.915 88.013,297.763 88.274 C 297.486 88.752,296.646 91.007,296.282 92.250 C 296.174 92.617,296.005 93.003,295.904 93.109 C 295.804 93.215,295.468 94.078,295.157 95.026 C 294.846 95.974,294.544 96.787,294.487 96.833 C 294.286 96.994,294.032 97.588,293.952 98.083 C 293.908 98.358,293.759 98.846,293.620 99.167 C 292.944 100.729,291.999 103.183,291.742 104.042 C 291.584 104.569,291.408 105.000,291.351 105.000 C 291.212 105.000,290.899 105.754,290.666 106.647 C 290.561 107.049,290.414 107.499,290.338 107.647 C 290.169 107.980,289.589 109.373,289.569 109.495 C 289.561 109.543,289.494 109.733,289.419 109.917 C 288.715 111.650,288.500 112.279,288.500 112.604 C 288.500 112.813,288.394 113.043,288.265 113.117 C 288.009 113.262,287.333 115.112,287.333 115.668 C 287.333 116.009,287.375 116.012,290.792 115.921 C 292.694 115.871,296.311 115.791,298.830 115.743 C 301.349 115.695,303.478 115.589,303.560 115.507 C 303.701 115.366,304.334 113.630,305.903 109.083 C 306.282 107.983,306.663 106.971,306.750 106.833 C 306.836 106.696,307.258 105.571,307.687 104.333 C 308.116 103.096,308.630 101.671,308.828 101.167 C 309.026 100.662,309.300 99.837,309.436 99.333 C 309.572 98.829,309.779 98.267,309.896 98.083 C 310.013 97.900,310.241 97.337,310.402 96.833 C 310.562 96.329,311.055 94.942,311.497 93.750 C 311.938 92.558,312.449 91.126,312.632 90.567 C 312.815 90.009,313.047 89.409,313.148 89.234 C 313.249 89.059,313.550 88.242,313.817 87.417 C 314.085 86.592,314.573 85.204,314.902 84.333 C 315.231 83.462,315.619 82.431,315.764 82.042 L 316.028 81.333 339.847 81.333 C 357.044 81.333,363.667 81.384,363.667 81.516 C 363.667 81.617,363.774 81.936,363.906 82.225 C 364.446 83.407,364.641 84.000,364.491 84.000 C 364.268 84.000,364.293 84.200,364.611 84.938 C 364.763 85.293,364.901 85.696,364.916 85.833 C 364.971 86.319,365.191 86.833,365.345 86.833 C 365.430 86.833,365.500 86.937,365.500 87.064 C 365.500 87.191,365.612 87.510,365.749 87.773 C 365.886 88.035,366.001 88.400,366.005 88.583 C 366.008 88.767,366.156 89.217,366.333 89.583 C 366.510 89.950,366.658 90.335,366.661 90.438 C 366.664 90.541,366.770 90.711,366.896 90.816 C 367.022 90.921,367.171 91.286,367.228 91.628 C 367.284 91.970,367.429 92.438,367.549 92.667 C 367.670 92.896,367.871 93.458,367.996 93.917 C 368.122 94.375,368.324 94.810,368.446 94.883 C 368.567 94.957,368.667 95.123,368.667 95.253 C 368.667 95.382,368.774 95.735,368.905 96.036 C 369.036 96.337,369.312 97.127,369.519 97.792 C 369.725 98.456,369.947 99.000,370.013 99.000 C 370.150 99.000,370.331 99.415,370.439 99.979 C 370.480 100.196,370.698 100.828,370.924 101.383 C 371.149 101.937,371.333 102.500,371.333 102.634 C 371.333 102.768,371.491 103.132,371.684 103.444 C 371.877 103.756,372.250 104.687,372.513 105.514 C 372.777 106.340,373.106 107.130,373.246 107.270 C 373.386 107.410,373.500 107.666,373.500 107.839 C 373.500 108.139,373.989 109.540,374.341 110.250 C 374.432 110.433,374.536 110.737,374.571 110.925 C 374.606 111.112,374.777 111.525,374.950 111.841 C 375.123 112.158,375.365 112.754,375.488 113.167 C 375.883 114.501,376.209 115.333,376.337 115.333 C 376.405 115.333,376.500 115.483,376.548 115.667 C 376.646 116.040,381.193 116.196,381.417 115.833 C 381.482 115.727,383.783 115.667,387.769 115.667 L 394.019 115.667 393.774 115.208 C 393.453 114.605,393.126 113.840,392.583 112.417 C 392.338 111.775,391.957 110.861,391.735 110.385 C 391.514 109.910,391.333 109.475,391.333 109.418 C 391.333 109.256,388.835 103.148,388.503 102.500 C 388.339 102.179,388.151 101.729,388.086 101.500 C 387.951 101.028,386.889 98.397,386.661 97.969 C 386.482 97.635,385.341 94.822,384.578 92.833 C 384.279 92.054,383.566 90.329,382.995 89.000 C 382.423 87.671,381.751 86.005,381.502 85.299 C 381.252 84.592,380.935 83.842,380.798 83.632 C 380.660 83.422,380.495 83.063,380.431 82.833 C 380.303 82.378,379.957 81.501,379.446 80.333 C 378.770 78.792,378.167 77.282,378.167 77.133 C 378.167 77.048,377.982 76.590,377.756 76.115 C 377.531 75.639,376.742 73.750,376.003 71.917 C 375.265 70.083,374.517 68.283,374.341 67.917 C 374.165 67.550,373.896 66.877,373.742 66.421 C 373.588 65.966,373.295 65.216,373.090 64.755 C 372.686 63.842,371.935 62.030,371.173 60.127 C 370.907 59.461,370.196 57.733,369.594 56.285 C 368.992 54.838,368.500 53.573,368.500 53.475 C 368.500 53.376,368.322 52.947,368.104 52.523 C 367.886 52.098,367.314 50.737,366.832 49.500 C 366.350 48.262,365.891 47.179,365.811 47.092 C 365.732 47.005,365.667 46.832,365.667 46.709 C 365.667 46.586,365.408 45.933,365.093 45.259 C 364.777 44.584,364.373 43.594,364.196 43.058 C 364.018 42.522,363.685 41.671,363.455 41.167 C 363.225 40.662,362.795 39.650,362.501 38.917 C 362.206 38.183,361.813 37.246,361.627 36.833 C 361.442 36.421,361.155 35.708,360.991 35.250 C 360.827 34.792,360.268 33.404,359.750 32.167 C 359.232 30.929,358.509 29.167,358.144 28.250 C 357.779 27.333,357.306 26.208,357.093 25.750 C 356.881 25.292,356.651 24.729,356.584 24.500 C 356.516 24.271,356.327 23.783,356.163 23.417 C 355.490 21.908,354.500 19.450,354.500 19.289 C 354.500 19.195,354.281 18.660,354.013 18.100 C 353.445 16.914,351.757 12.805,351.325 11.556 C 351.161 11.083,350.914 10.520,350.777 10.306 C 350.639 10.092,350.376 9.467,350.191 8.917 C 350.007 8.367,349.544 7.205,349.162 6.335 C 348.676 5.229,348.515 4.681,348.623 4.509 C 348.724 4.349,348.701 4.115,348.560 3.840 C 348.439 3.607,348.194 3.060,348.013 2.625 L 347.685 1.833 339.362 1.833 L 331.038 1.833 330.796 2.208 M238.051 16.458 C 239.041 16.487,240.616 16.487,241.551 16.458 C 242.485 16.428,241.675 16.404,239.750 16.404 C 237.825 16.404,237.060 16.428,238.051 16.458 M340.646 19.460 C 341.046 20.720,341.550 22.238,341.764 22.833 C 342.574 25.083,343.051 26.768,343.022 27.276 C 343.005 27.565,343.106 27.916,343.246 28.055 C 343.386 28.195,343.500 28.429,343.500 28.575 C 343.500 28.909,344.693 32.554,344.839 32.667 C 344.898 32.712,345.122 33.275,345.335 33.917 C 345.852 35.466,346.393 36.897,346.501 37.000 C 346.550 37.046,346.676 37.383,346.782 37.750 C 347.078 38.775,347.700 40.554,347.858 40.833 C 347.937 40.971,348.077 41.271,348.171 41.500 C 348.264 41.729,348.409 42.067,348.493 42.250 C 348.577 42.433,348.770 43.033,348.921 43.583 C 349.073 44.133,349.332 44.846,349.498 45.167 C 349.909 45.962,350.833 48.534,350.833 48.883 C 350.833 49.039,350.908 49.167,351.000 49.167 C 351.092 49.167,351.154 49.223,351.139 49.292 C 351.124 49.360,351.276 49.782,351.475 50.228 C 351.675 50.675,351.924 51.387,352.028 51.812 C 352.131 52.236,352.430 53.012,352.692 53.537 C 352.953 54.061,353.167 54.599,353.167 54.733 C 353.167 54.961,353.922 56.994,354.411 58.083 C 354.832 59.020,355.154 59.915,355.339 60.667 C 355.441 61.079,355.615 61.492,355.726 61.583 C 355.837 61.675,356.027 62.087,356.148 62.500 C 356.435 63.478,357.299 65.934,357.598 66.625 C 357.728 66.923,357.952 67.425,358.098 67.740 C 358.728 69.108,359.886 69.000,344.599 69.000 C 337.150 69.000,328.692 69.049,325.805 69.110 C 319.862 69.234,320.128 69.297,320.756 67.917 C 320.964 67.458,321.249 66.746,321.388 66.333 C 321.780 65.174,322.483 63.304,322.734 62.750 C 322.859 62.475,323.057 61.950,323.173 61.583 C 323.654 60.064,323.900 59.404,324.063 59.192 C 324.158 59.068,324.250 58.867,324.268 58.745 C 324.312 58.447,325.859 54.294,326.005 54.083 C 326.068 53.992,326.285 53.365,326.487 52.692 C 326.688 52.018,327.036 51.067,327.260 50.577 C 327.484 50.088,327.667 49.612,327.667 49.520 C 327.667 49.427,328.034 48.428,328.484 47.301 C 328.934 46.173,329.495 44.671,329.731 43.963 C 329.968 43.255,330.313 42.393,330.497 42.048 C 330.682 41.704,330.833 41.329,330.833 41.215 C 330.833 40.992,331.855 38.177,332.333 37.083 C 332.583 36.513,333.033 35.266,333.086 35.000 C 333.232 34.262,333.398 33.820,333.590 33.661 C 333.719 33.554,333.875 33.193,333.936 32.858 C 333.997 32.524,334.420 31.238,334.876 30.000 C 336.187 26.439,336.839 24.641,337.112 23.833 C 337.458 22.810,337.994 21.355,338.248 20.750 C 338.364 20.475,338.703 19.556,339.002 18.708 C 339.706 16.711,339.781 16.745,340.646 19.460 "
              stroke="none" fill="whitesmoke" fill-rule="evenodd"></path>
        <path id="path2"
              d="M16.717 50.291 C 17.523 50.321,18.798 50.321,19.550 50.291 C 20.302 50.260,19.642 50.235,18.083 50.235 C 16.525 50.235,15.910 50.260,16.717 50.291 M78.075 58.250 C 78.075 61.275,78.097 62.536,78.125 61.052 C 78.152 59.568,78.152 57.093,78.125 55.552 C 78.097 54.011,78.075 55.225,78.075 58.250 M210.417 95.000 C 211.146 95.733,211.780 96.333,211.826 96.333 C 211.871 96.333,211.312 95.733,210.583 95.000 C 209.854 94.267,209.220 93.667,209.174 93.667 C 209.129 93.667,209.688 94.267,210.417 95.000 M176.206 110.291 L 176.167 115.666 143.625 115.708 L 111.083 115.751 143.630 115.792 C 169.671 115.825,176.193 115.791,176.258 115.623 C 176.302 115.508,176.317 113.052,176.292 110.165 L 176.245 104.917 176.206 110.291 M25.708 115.792 C 36.594 115.815,54.406 115.815,65.292 115.792 C 76.177 115.768,67.271 115.749,45.500 115.749 C 23.729 115.749,14.823 115.768,25.708 115.792 M296.802 115.791 C 298.114 115.820,300.214 115.819,301.468 115.791 C 302.723 115.763,301.650 115.740,299.083 115.740 C 296.517 115.740,295.490 115.763,296.802 115.791 M384.708 115.791 C 386.427 115.819,389.240 115.819,390.958 115.791 C 392.677 115.764,391.271 115.742,387.833 115.742 C 384.396 115.742,382.990 115.764,384.708 115.791 "
              stroke="none" fill="#6d839c" fill-rule="evenodd"></path>
        <path id="path3"
              d="M120.082 53.417 C 120.082 80.275,120.101 91.238,120.125 77.778 C 120.149 64.319,120.149 42.344,120.125 28.945 C 120.101 15.546,120.082 26.558,120.082 53.417 M259.500 5.968 C 259.500 6.058,259.619 6.177,259.764 6.232 C 259.926 6.295,260.002 6.257,259.962 6.136 C 259.879 5.886,259.500 5.749,259.500 5.968 M264.682 9.708 C 264.722 9.731,265.053 10.012,265.419 10.333 L 266.083 10.917 265.509 10.292 C 265.193 9.948,264.862 9.667,264.773 9.667 C 264.684 9.667,264.643 9.685,264.682 9.708 M266.833 11.750 C 267.144 12.071,267.436 12.333,267.482 12.333 C 267.528 12.333,267.311 12.071,267.000 11.750 C 266.689 11.429,266.397 11.167,266.351 11.167 C 266.305 11.167,266.522 11.429,266.833 11.750 M234.333 13.494 C 236.671 13.561,239.244 13.710,240.052 13.825 C 240.860 13.940,241.556 13.999,241.599 13.957 C 241.827 13.728,238.220 13.458,234.417 13.418 L 230.083 13.373 234.333 13.494 M228.458 13.621 C 228.756 13.658,229.244 13.658,229.542 13.621 C 229.840 13.584,229.596 13.553,229.000 13.553 C 228.404 13.553,228.160 13.584,228.458 13.621 M226.960 13.785 C 227.168 13.824,227.468 13.823,227.627 13.781 C 227.786 13.739,227.617 13.707,227.250 13.709 C 226.883 13.711,226.753 13.745,226.960 13.785 M225.083 14.000 C 224.390 14.176,225.072 14.184,225.917 14.010 C 226.477 13.894,226.504 13.872,226.083 13.872 C 225.808 13.873,225.358 13.930,225.083 14.000 M269.833 15.333 C 270.029 15.608,270.227 15.833,270.273 15.833 C 270.319 15.833,270.196 15.608,270.000 15.333 C 269.804 15.058,269.606 14.833,269.561 14.833 C 269.515 14.833,269.638 15.058,269.833 15.333 M15.040 32.865 C 15.018 42.370,15.056 50.182,15.125 50.224 C 15.238 50.294,15.237 38.271,15.123 21.833 C 15.099 18.396,15.061 23.360,15.040 32.865 M212.077 20.208 L 211.250 21.083 212.125 20.256 C 212.606 19.801,213.000 19.408,213.000 19.381 C 213.000 19.257,212.846 19.395,212.077 20.208 M208.490 25.775 C 208.398 26.018,208.347 26.290,208.377 26.380 C 208.407 26.470,208.514 26.271,208.617 25.938 C 208.831 25.239,208.739 25.121,208.490 25.775 M333.324 34.125 C 332.986 35.051,332.977 35.086,333.134 34.917 C 333.317 34.719,333.684 33.667,333.571 33.667 C 333.527 33.667,333.416 33.873,333.324 34.125 M273.961 34.287 C 274.261 34.325,274.711 34.324,274.961 34.286 C 275.212 34.248,274.967 34.217,274.417 34.218 C 273.867 34.219,273.662 34.250,273.961 34.287 M270.167 34.500 L 269.083 34.609 270.000 34.616 C 270.504 34.620,271.479 34.570,272.167 34.505 L 273.417 34.387 272.333 34.389 C 271.737 34.390,270.762 34.440,270.167 34.500 M208.346 34.630 C 208.331 34.886,208.781 36.000,208.900 36.000 C 208.945 36.000,208.884 35.756,208.763 35.458 C 208.642 35.160,208.502 34.804,208.451 34.667 C 208.392 34.505,208.355 34.492,208.346 34.630 M267.628 34.787 C 267.928 34.825,268.378 34.824,268.628 34.786 C 268.878 34.748,268.633 34.717,268.083 34.718 C 267.533 34.719,267.328 34.750,267.628 34.787 M364.500 43.869 C 364.500 44.048,365.006 45.167,365.088 45.167 C 365.134 45.167,365.055 44.889,364.914 44.550 C 364.664 43.952,364.500 43.682,364.500 43.869 M263.181 57.387 C 263.219 57.417,263.512 57.611,263.833 57.818 L 264.417 58.194 263.917 57.765 C 263.642 57.528,263.348 57.335,263.264 57.334 C 263.180 57.334,263.142 57.358,263.181 57.387 M323.631 60.088 C 323.580 60.269,323.487 60.567,323.425 60.750 C 323.363 60.933,323.434 60.873,323.583 60.615 C 323.732 60.357,323.825 60.059,323.790 59.953 C 323.754 59.846,323.683 59.907,323.631 60.088 M267.893 60.462 C 268.025 60.675,269.000 61.397,269.000 61.281 C 269.000 61.240,268.725 60.996,268.388 60.740 C 268.052 60.483,267.829 60.358,267.893 60.462 M222.922 61.136 C 223.156 61.341,224.515 61.707,224.627 61.595 C 224.680 61.543,224.653 61.499,224.569 61.498 C 224.485 61.497,224.044 61.383,223.589 61.245 C 223.133 61.107,222.833 61.058,222.922 61.136 M271.417 63.500 C 271.961 64.050,272.444 64.500,272.490 64.500 C 272.535 64.500,272.128 64.050,271.583 63.500 C 271.039 62.950,270.556 62.500,270.510 62.500 C 270.465 62.500,270.872 62.950,271.417 63.500 M15.081 83.000 C 15.081 93.679,15.101 98.048,15.125 92.708 C 15.149 87.369,15.149 78.631,15.125 73.292 C 15.101 67.952,15.081 72.321,15.081 83.000 M235.917 64.500 C 236.100 64.579,236.400 64.641,236.583 64.638 C 236.851 64.634,236.835 64.607,236.500 64.500 C 235.930 64.317,235.492 64.317,235.917 64.500 M237.250 64.833 C 237.433 64.912,237.696 64.977,237.833 64.977 C 237.991 64.977,237.960 64.924,237.750 64.833 C 237.567 64.755,237.304 64.690,237.167 64.690 C 237.009 64.690,237.040 64.743,237.250 64.833 M373.833 66.619 C 373.833 66.854,374.318 68.000,374.418 68.000 C 374.461 68.000,374.373 67.681,374.222 67.292 C 373.914 66.503,373.833 66.362,373.833 66.619 M279.294 82.583 C 279.327 84.417,279.378 86.029,279.408 86.167 C 279.518 86.680,279.466 80.883,279.353 80.083 C 279.288 79.625,279.262 80.750,279.294 82.583 M364.028 82.842 C 364.125 83.122,364.236 83.319,364.274 83.282 C 364.356 83.199,364.042 82.333,363.929 82.333 C 363.886 82.333,363.930 82.562,364.028 82.842 M380.424 82.875 C 380.486 83.081,380.606 83.323,380.690 83.413 C 380.774 83.502,380.758 83.334,380.655 83.038 C 380.444 82.432,380.249 82.295,380.424 82.875 M204.024 83.250 C 204.025 83.598,204.467 84.875,204.485 84.583 C 204.490 84.492,204.389 84.079,204.259 83.667 C 204.129 83.254,204.023 83.067,204.024 83.250 M314.360 85.757 C 314.081 86.370,314.134 86.501,314.436 85.944 C 314.577 85.683,314.662 85.439,314.623 85.401 C 314.585 85.363,314.467 85.523,314.360 85.757 M381.596 85.667 C 381.657 85.896,381.776 86.196,381.861 86.333 C 381.969 86.507,381.982 86.456,381.904 86.167 C 381.843 85.938,381.724 85.638,381.639 85.500 C 381.531 85.326,381.518 85.377,381.596 85.667 M279.205 87.000 C 279.205 87.321,279.240 87.452,279.282 87.292 C 279.323 87.131,279.323 86.869,279.282 86.708 C 279.240 86.548,279.205 86.679,279.205 87.000 M205.845 88.462 C 205.948 88.758,206.101 89.043,206.184 89.094 C 206.268 89.146,206.246 88.977,206.136 88.719 C 205.842 88.027,205.628 87.838,205.845 88.462 M385.345 94.750 C 385.345 94.842,385.452 95.104,385.583 95.333 C 385.714 95.563,385.822 95.675,385.822 95.583 C 385.822 95.492,385.714 95.229,385.583 95.000 C 385.452 94.771,385.345 94.658,385.345 94.750 M276.417 96.833 C 276.274 97.108,276.196 97.333,276.241 97.333 C 276.287 97.333,276.441 97.108,276.583 96.833 C 276.726 96.558,276.804 96.333,276.759 96.333 C 276.713 96.333,276.559 96.558,276.417 96.833 M306.438 107.496 C 306.289 107.869,306.170 108.266,306.174 108.378 C 306.179 108.491,306.327 108.213,306.504 107.760 C 306.681 107.307,306.799 106.910,306.767 106.878 C 306.735 106.846,306.587 107.124,306.438 107.496 M254.083 115.256 C 253.667 115.457,253.653 115.480,254.000 115.395 C 254.472 115.279,255.003 115.009,254.750 115.013 C 254.658 115.014,254.358 115.123,254.083 115.256 M217.833 115.500 C 218.403 115.683,218.841 115.683,218.417 115.500 C 218.233 115.421,217.933 115.359,217.750 115.362 C 217.482 115.366,217.498 115.393,217.833 115.500 M225.208 116.948 C 225.369 116.990,225.631 116.990,225.792 116.948 C 225.952 116.906,225.821 116.872,225.500 116.872 C 225.179 116.872,225.048 116.906,225.208 116.948 M246.602 116.970 C 246.556 117.045,246.739 117.074,247.009 117.034 C 247.279 116.995,247.500 116.933,247.500 116.898 C 247.500 116.771,246.685 116.836,246.602 116.970 M231.833 117.607 C 233.228 117.730,234.796 117.740,234.725 117.625 C 234.682 117.556,233.883 117.513,232.948 117.528 C 232.014 117.543,231.512 117.579,231.833 117.607 M240.458 117.622 C 240.848 117.657,241.485 117.657,241.875 117.622 C 242.265 117.587,241.946 117.558,241.167 117.558 C 240.387 117.558,240.069 117.587,240.458 117.622 "
              stroke="none" fill="#5b749c" fill-rule="evenodd"></path>
        <path id="path4"
              d="M82.373 10.041 L 82.333 15.499 48.792 15.542 L 15.250 15.584 48.797 15.625 C 75.634 15.658,82.360 15.625,82.424 15.457 C 82.469 15.342,82.484 12.848,82.458 9.915 L 82.412 4.583 82.373 10.041 M120.250 53.458 L 120.250 102.250 123.167 102.256 L 126.083 102.263 123.209 102.211 L 120.334 102.159 120.292 53.413 L 120.249 4.667 120.250 53.458 M261.167 6.894 C 261.167 6.940,261.392 7.138,261.667 7.333 C 261.942 7.529,262.167 7.652,262.167 7.606 C 262.167 7.560,261.942 7.362,261.667 7.167 C 261.392 6.971,261.167 6.848,261.167 6.894 M266.674 11.405 C 267.549 12.328,268.551 13.421,268.900 13.833 C 269.373 14.392,269.436 14.435,269.145 14.000 C 268.930 13.679,267.929 12.586,266.919 11.572 L 265.083 9.727 266.674 11.405 M231.958 13.624 C 232.990 13.654,234.677 13.654,235.708 13.624 C 236.740 13.595,235.896 13.571,233.833 13.571 C 231.771 13.571,230.927 13.595,231.958 13.624 M269.833 15.125 C 270.051 15.423,270.255 15.667,270.287 15.667 C 270.414 15.667,270.001 15.042,269.727 14.820 C 269.547 14.673,269.587 14.790,269.833 15.125 M353.253 16.116 C 353.503 16.714,353.667 16.984,353.667 16.798 C 353.667 16.618,353.160 15.500,353.079 15.500 C 353.033 15.500,353.111 15.777,353.253 16.116 M218.500 15.917 C 217.956 16.228,218.146 16.231,218.856 15.923 C 219.164 15.789,219.304 15.679,219.167 15.679 C 219.029 15.679,218.729 15.786,218.500 15.917 M15.247 33.000 C 15.247 42.487,15.267 46.369,15.292 41.625 C 15.316 36.881,15.316 29.119,15.292 24.375 C 15.267 19.631,15.247 23.512,15.247 33.000 M249.167 16.249 C 249.167 16.362,250.520 17.035,250.596 16.960 C 250.631 16.925,250.323 16.733,249.913 16.534 C 249.503 16.334,249.167 16.206,249.167 16.249 M339.019 18.852 C 338.916 19.146,338.861 19.417,338.897 19.452 C 338.932 19.488,339.045 19.276,339.148 18.981 C 339.251 18.687,339.306 18.417,339.270 18.381 C 339.234 18.345,339.121 18.557,339.019 18.852 M212.329 20.125 L 211.250 21.250 212.375 20.171 C 213.420 19.170,213.576 19.000,213.454 19.000 C 213.428 19.000,212.922 19.506,212.329 20.125 M337.756 22.491 C 337.578 22.779,337.157 24.065,337.282 23.941 C 337.423 23.799,337.997 22.333,337.910 22.333 C 337.879 22.333,337.809 22.404,337.756 22.491 M341.690 23.167 C 341.690 23.304,341.755 23.567,341.833 23.750 C 341.924 23.960,341.977 23.991,341.977 23.833 C 341.977 23.696,341.912 23.433,341.833 23.250 C 341.743 23.040,341.690 23.009,341.690 23.167 M274.424 24.375 C 274.486 24.581,274.606 24.823,274.690 24.913 C 274.774 25.002,274.758 24.834,274.655 24.538 C 274.444 23.932,274.249 23.795,274.424 24.375 M208.662 25.763 C 208.419 26.402,208.115 27.670,208.187 27.742 C 208.222 27.777,208.406 27.249,208.597 26.569 C 208.942 25.340,208.974 24.943,208.662 25.763 M342.600 26.057 C 342.749 26.494,342.900 26.822,342.936 26.786 C 343.023 26.699,342.660 25.626,342.475 25.423 C 342.395 25.335,342.451 25.620,342.600 26.057 M335.936 27.269 C 335.788 27.702,335.696 28.085,335.732 28.121 C 335.767 28.156,335.917 27.830,336.064 27.397 C 336.212 26.964,336.304 26.581,336.268 26.546 C 336.233 26.511,336.083 26.836,335.936 27.269 M357.845 27.250 C 357.845 27.342,357.952 27.604,358.083 27.833 C 358.214 28.063,358.322 28.175,358.322 28.083 C 358.322 27.992,358.214 27.729,358.083 27.500 C 357.952 27.271,357.845 27.158,357.845 27.250 M208.039 28.500 C 208.039 28.821,208.073 28.952,208.115 28.792 C 208.157 28.631,208.157 28.369,208.115 28.208 C 208.073 28.048,208.039 28.179,208.039 28.500 M207.890 30.417 C 207.891 31.150,207.920 31.429,207.956 31.037 C 207.991 30.645,207.990 30.045,207.954 29.704 C 207.919 29.363,207.890 29.683,207.890 30.417 M275.729 29.833 C 275.787 30.246,275.910 31.328,276.002 32.238 C 276.095 33.148,276.213 33.935,276.265 33.987 C 276.317 34.039,276.310 33.594,276.251 32.999 C 276.050 30.992,275.807 29.251,275.715 29.167 C 275.665 29.121,275.671 29.421,275.729 29.833 M359.753 31.950 C 360.003 32.548,360.167 32.818,360.167 32.631 C 360.167 32.452,359.660 31.333,359.579 31.333 C 359.533 31.333,359.611 31.611,359.753 31.950 M208.039 32.500 C 208.039 32.821,208.073 32.952,208.115 32.792 C 208.157 32.631,208.157 32.369,208.115 32.208 C 208.073 32.048,208.039 32.179,208.039 32.500 M208.176 33.357 C 208.165 33.684,208.831 35.891,208.915 35.807 C 208.947 35.776,208.795 35.150,208.579 34.416 C 208.362 33.683,208.181 33.207,208.176 33.357 M333.367 34.450 C 333.120 35.254,333.239 35.373,333.500 34.583 C 333.610 34.250,333.667 33.945,333.628 33.906 C 333.588 33.866,333.471 34.111,333.367 34.450 M361.200 35.504 C 361.391 35.964,361.576 36.313,361.611 36.278 C 361.690 36.199,361.043 34.667,360.932 34.667 C 360.888 34.667,361.008 35.043,361.200 35.504 M219.243 44.099 C 219.610 44.367,219.833 44.400,219.833 44.186 C 219.833 44.105,219.629 44.000,219.378 43.952 C 218.952 43.870,218.944 43.880,219.243 44.099 M329.695 44.325 C 329.597 44.605,329.553 44.833,329.596 44.833 C 329.709 44.833,330.023 43.968,329.941 43.885 C 329.903 43.847,329.792 44.045,329.695 44.325 M367.167 50.035 C 367.167 50.215,367.673 51.333,367.754 51.333 C 367.800 51.333,367.722 51.056,367.580 50.717 C 367.330 50.119,367.167 49.849,367.167 50.035 M326.185 53.685 C 326.083 53.980,326.028 54.250,326.063 54.286 C 326.099 54.321,326.212 54.109,326.315 53.815 C 326.417 53.520,326.472 53.250,326.437 53.214 C 326.401 53.179,326.288 53.391,326.185 53.685 M370.258 57.708 C 370.320 57.915,370.439 58.157,370.523 58.246 C 370.607 58.336,370.591 58.167,370.488 57.871 C 370.277 57.266,370.082 57.128,370.258 57.708 M214.833 58.917 C 214.833 59.044,214.989 59.091,215.250 59.041 C 215.479 58.997,215.667 58.941,215.667 58.917 C 215.667 58.892,215.479 58.836,215.250 58.793 C 214.989 58.743,214.833 58.789,214.833 58.917 M217.250 59.589 C 217.525 59.715,217.862 59.816,218.000 59.813 C 218.137 59.810,217.987 59.707,217.667 59.583 C 216.906 59.290,216.606 59.295,217.250 59.589 M323.756 60.324 C 323.578 60.612,323.157 61.898,323.282 61.774 C 323.423 61.632,323.997 60.167,323.910 60.167 C 323.879 60.167,323.809 60.238,323.756 60.324 M268.667 60.877 C 268.667 60.916,269.060 61.276,269.542 61.678 C 270.023 62.079,270.311 62.275,270.183 62.114 C 269.924 61.790,268.667 60.763,268.667 60.877 M227.087 62.401 C 227.456 62.523,228.018 62.668,228.337 62.723 C 228.890 62.818,228.885 62.812,228.246 62.599 C 227.878 62.477,227.315 62.332,226.996 62.277 C 226.444 62.182,226.448 62.188,227.087 62.401 M271.417 63.333 C 271.961 63.883,272.444 64.333,272.490 64.333 C 272.535 64.333,272.128 63.883,271.583 63.333 C 271.039 62.783,270.556 62.333,270.510 62.333 C 270.465 62.333,270.872 62.783,271.417 63.333 M15.208 82.958 L 15.250 102.250 18.125 102.256 L 21.000 102.262 18.167 102.210 L 15.333 102.159 15.333 82.996 L 15.333 63.834 46.625 63.792 L 77.917 63.749 46.541 63.708 L 15.165 63.667 15.208 82.958 M232.583 63.833 C 232.767 63.912,233.067 63.974,233.250 63.972 C 233.518 63.968,233.502 63.941,233.167 63.833 C 232.597 63.651,232.159 63.651,232.583 63.833 M234.000 64.167 C 234.570 64.349,235.008 64.349,234.583 64.167 C 234.400 64.088,234.100 64.026,233.917 64.028 C 233.649 64.032,233.665 64.059,234.000 64.167 M272.500 64.552 C 272.500 64.581,272.744 64.825,273.042 65.094 L 273.583 65.583 273.094 65.042 C 272.638 64.537,272.500 64.423,272.500 64.552 M240.235 65.685 C 240.776 65.860,241.251 65.971,241.289 65.933 C 241.364 65.858,239.622 65.323,239.391 65.350 C 239.313 65.359,239.693 65.510,240.235 65.685 M374.130 67.091 C 374.285 67.508,374.433 67.784,374.460 67.705 C 374.513 67.544,374.039 66.333,373.922 66.333 C 373.882 66.333,373.976 66.674,374.130 67.091 M246.235 67.351 C 246.776 67.526,247.251 67.638,247.289 67.600 C 247.364 67.525,245.622 66.989,245.391 67.017 C 245.313 67.026,245.693 67.176,246.235 67.351 M322.292 69.124 C 323.231 69.154,324.769 69.154,325.708 69.124 C 326.648 69.095,325.879 69.070,324.000 69.070 C 322.121 69.070,321.352 69.095,322.292 69.124 M376.616 73.248 C 376.768 73.568,376.923 73.800,376.959 73.763 C 377.035 73.687,376.529 72.667,376.415 72.667 C 376.373 72.667,376.463 72.928,376.616 73.248 M278.870 76.917 C 278.871 77.100,278.930 77.475,279.000 77.750 C 279.114 78.199,279.128 78.208,279.130 77.833 C 279.132 77.604,279.073 77.229,279.000 77.000 C 278.895 76.674,278.867 76.655,278.870 76.917 M279.461 82.583 C 279.494 84.417,279.545 86.029,279.574 86.167 C 279.685 86.680,279.633 80.883,279.520 80.083 C 279.455 79.625,279.428 80.750,279.461 82.583 M339.650 81.458 C 358.162 81.492,363.274 81.546,363.484 81.709 C 363.720 81.893,363.724 81.883,363.521 81.625 C 363.305 81.349,361.998 81.336,339.688 81.374 L 316.083 81.416 339.650 81.458 M203.858 81.917 C 203.859 82.315,204.633 85.027,204.644 84.667 C 204.648 84.529,204.473 83.779,204.255 83.000 C 204.037 82.221,203.858 81.733,203.858 81.917 M380.468 82.583 C 380.553 82.767,380.663 83.029,380.714 83.167 C 380.794 83.383,380.809 83.381,380.820 83.157 C 380.827 83.014,380.717 82.751,380.574 82.574 C 380.319 82.255,380.317 82.255,380.468 82.583 M315.491 82.958 C 315.153 83.884,315.144 83.920,315.301 83.750 C 315.483 83.552,315.851 82.500,315.737 82.500 C 315.694 82.500,315.583 82.706,315.491 82.958 M381.506 85.023 C 381.503 85.081,381.610 85.381,381.743 85.689 C 381.877 85.998,381.987 86.138,381.988 86.000 C 381.988 85.760,381.518 84.806,381.506 85.023 M279.267 87.600 C 279.204 88.210,279.187 88.743,279.229 88.784 C 279.270 88.826,279.357 88.363,279.422 87.756 C 279.487 87.148,279.504 86.616,279.460 86.571 C 279.416 86.527,279.329 86.990,279.267 87.600 M383.091 89.042 C 383.153 89.248,383.273 89.490,383.357 89.580 C 383.440 89.669,383.425 89.500,383.322 89.205 C 383.110 88.599,382.916 88.461,383.091 89.042 M206.673 89.917 C 206.674 90.008,206.827 90.271,207.015 90.500 C 207.241 90.777,207.298 90.805,207.183 90.583 C 206.902 90.040,206.672 89.738,206.673 89.917 M278.759 90.426 C 278.697 90.760,278.679 91.067,278.719 91.108 C 278.760 91.149,278.845 90.909,278.907 90.574 C 278.970 90.240,278.988 89.933,278.947 89.892 C 278.907 89.851,278.822 90.091,278.759 90.426 M312.103 92.269 C 311.955 92.702,311.863 93.085,311.898 93.121 C 311.934 93.156,312.083 92.830,312.231 92.397 C 312.378 91.964,312.470 91.581,312.435 91.546 C 312.400 91.511,312.250 91.836,312.103 92.269 M276.200 97.587 C 276.001 97.997,275.873 98.333,275.915 98.333 C 276.028 98.333,276.702 96.980,276.626 96.904 C 276.591 96.869,276.400 97.177,276.200 97.587 M387.823 100.542 C 388.179 101.445,388.487 102.069,388.493 101.896 C 388.501 101.675,387.850 100.167,387.746 100.167 C 387.707 100.167,387.741 100.335,387.823 100.542 M271.158 104.958 L 270.583 105.583 271.208 105.009 C 271.790 104.474,271.910 104.333,271.783 104.333 C 271.755 104.333,271.474 104.615,271.158 104.958 M85.075 110.417 C 85.075 113.442,85.097 114.703,85.125 113.219 C 85.152 111.735,85.152 109.260,85.125 107.719 C 85.097 106.178,85.075 107.392,85.075 110.417 M269.328 106.792 L 268.417 107.750 269.375 106.839 C 270.265 105.993,270.410 105.833,270.286 105.833 C 270.260 105.833,269.829 106.265,269.328 106.792 M390.679 107.629 C 390.782 107.925,390.934 108.209,391.018 108.261 C 391.101 108.312,391.079 108.144,390.970 107.886 C 390.675 107.194,390.461 107.005,390.679 107.629 M306.219 108.539 C 306.019 109.110,305.881 109.603,305.911 109.634 C 305.996 109.718,306.686 107.809,306.631 107.644 C 306.605 107.565,306.419 107.967,306.219 108.539 M391.179 108.667 C 391.179 108.907,391.649 109.861,391.661 109.644 C 391.664 109.586,391.557 109.286,391.423 108.977 C 391.289 108.669,391.179 108.529,391.179 108.667 M220.167 116.167 C 220.396 116.240,220.733 116.300,220.917 116.300 C 221.181 116.300,221.163 116.272,220.833 116.167 C 220.604 116.093,220.267 116.033,220.083 116.033 C 219.819 116.033,219.837 116.061,220.167 116.167 M251.083 116.167 C 250.873 116.257,250.842 116.310,251.000 116.310 C 251.137 116.310,251.400 116.245,251.583 116.167 C 251.793 116.076,251.824 116.023,251.667 116.023 C 251.529 116.023,251.267 116.088,251.083 116.167 M221.750 116.500 C 222.025 116.570,222.438 116.627,222.667 116.627 C 223.038 116.627,223.029 116.613,222.583 116.500 C 222.308 116.430,221.896 116.373,221.667 116.373 C 221.295 116.373,221.304 116.387,221.750 116.500 M249.667 116.500 C 249.337 116.606,249.319 116.633,249.583 116.633 C 249.767 116.633,250.104 116.573,250.333 116.500 C 250.663 116.394,250.681 116.367,250.417 116.367 C 250.233 116.367,249.896 116.427,249.667 116.500 M224.167 116.929 C 224.762 117.051,225.438 117.146,225.667 117.140 C 225.896 117.134,225.558 117.030,224.917 116.908 C 224.275 116.787,223.600 116.691,223.417 116.697 C 223.233 116.702,223.571 116.806,224.167 116.929 M226.627 117.285 C 226.834 117.324,227.134 117.323,227.294 117.281 C 227.453 117.239,227.283 117.207,226.917 117.209 C 226.550 117.211,226.420 117.245,226.627 117.285 M245.708 117.282 C 245.869 117.323,246.131 117.323,246.292 117.282 C 246.452 117.240,246.321 117.205,246.000 117.205 C 245.679 117.205,245.548 117.240,245.708 117.282 M240.667 117.695 C 239.612 117.776,237.063 117.810,235.000 117.771 C 231.570 117.707,231.442 117.714,233.500 117.855 C 236.062 118.031,242.336 117.894,242.575 117.657 C 242.662 117.571,242.700 117.511,242.658 117.525 C 242.617 117.538,241.721 117.615,240.667 117.695 "
              stroke="none" fill="#7e8ca4" fill-rule="evenodd"></path>
    </g>
</svg>
